<?xml version="1.0" encoding="UTF-8" standalone="no"?>
<!-- Created with Inkscape (http://www.inkscape.org/) -->

<svg
   xmlns:dc="http://purl.org/dc/elements/1.1/"
   xmlns:cc="http://creativecommons.org/ns#"
   xmlns:rdf="http://www.w3.org/1999/02/22-rdf-syntax-ns#"
   xmlns:svg="http://www.w3.org/2000/svg"
   xmlns="http://www.w3.org/2000/svg"
   xmlns:sodipodi="http://sodipodi.sourceforge.net/DTD/sodipodi-0.dtd"
   xmlns:inkscape="http://www.inkscape.org/namespaces/inkscape"
   width="1000"
   height="674.18298"
   id="svg2"
   sodipodi:version="0.32"
   inkscape:version="0.91 r13725"
   version="1.0"
   sodipodi:docname="Adidas.svg"
   inkscape:output_extension="org.inkscape.output.svg.inkscape">
  <defs
     id="defs4">
    <inkscape:perspective
       sodipodi:type="inkscape:persp3d"
       inkscape:vp_x="0 : 526.18109 : 1"
       inkscape:vp_y="0 : 1000 : 0"
       inkscape:vp_z="744.09448 : 526.18109 : 1"
       inkscape:persp3d-origin="372.04724 : 350.78739 : 1"
       id="perspective10" />
    <inkscape:perspective
       id="perspective2399"
       inkscape:persp3d-origin="358.69965 : 161.21951 : 1"
       inkscape:vp_z="717.39929 : 241.82927 : 1"
       inkscape:vp_y="0 : 1000 : 0"
       inkscape:vp_x="0 : 241.82927 : 1"
       sodipodi:type="inkscape:persp3d" />
  </defs>
  <sodipodi:namedview
     id="base"
     pagecolor="#ffffff"
     bordercolor="#666666"
     borderopacity="1.0"
     inkscape:pageopacity="0.0"
     inkscape:pageshadow="2"
     inkscape:zoom="0.35355339"
     inkscape:cx="726.44252"
     inkscape:cy="165.64471"
     inkscape:document-units="px"
     inkscape:current-layer="g2402"
     showgrid="false"
     inkscape:window-width="1366"
     inkscape:window-height="705"
     inkscape:window-x="-8"
     inkscape:window-y="-8"
     inkscape:window-maximized="1" />
  <metadata
     id="metadata7">
    <rdf:RDF>
      <cc:Work
         rdf:about="">
        <dc:format>image/svg+xml</dc:format>
        <dc:type
           rdf:resource="http://purl.org/dc/dcmitype/StillImage" />
        <dc:title></dc:title>
      </cc:Work>
    </rdf:RDF>
  </metadata>
  <g
     inkscape:label="Ebene 1"
     inkscape:groupmode="layer"
     id="layer1"
     transform="translate(-24.157502,-110.6356)">
    <g
       transform="matrix(1.3940505,0,0,1.3940505,-65.627002,-498.4682)"
       id="g2402"
       inkscape:label="Ebene 1">
      <g
         style="fill:#000000"
         id="g3035"
         transform="matrix(0.99990917,0,0,0.99990868,0.00584667,-2.503902)">
        <path
           id="path2405"
           class="ps00"
           d="M 533.9435,756.70465 386.43318,500.34377 492.40483,439.4751 l 183.4283,317.22955 -141.88963,0"
           style="fill:#000000;fill-rule:nonzero;stroke:none"
           inkscape:connector-curvature="0" />
        <path
           id="path2407"
           class="ps00"
           d="m 141.03958,720.78673 105.97165,-61.27985 56.07037,97.19777 -141.47831,0 -20.56371,-35.91792"
           style="fill:#000000;fill-rule:nonzero;stroke:none"
           inkscape:connector-curvature="0" />
        <path
           id="path2409"
           class="ps00"
           d="m 349.00724,920.25463 30.16006,0 0,-122.01125 -30.16006,0 0,122.01125 z"
           style="fill:#000000;fill-rule:nonzero;stroke:none"
           inkscape:connector-curvature="0" />
        <path
           id="path2411"
           class="ps00"
           d="m 726.96825,923.13364 c -33.72452,0 -54.01413,-17.4106 -55.11081,-41.95001 l 31.80529,0 c 0,7.67715 4.79819,18.91861 25.36192,19.32994 13.70913,0 20.15239,-8.08849 20.15239,-14.12047 -0.82261,-9.59639 -12.88668,-10.419 -25.7732,-12.47534 -12.88652,-2.0564 -23.85386,-4.38692 -31.80518,-8.49966 -10.14488,-5.20948 -16.99942,-16.45093 -16.99942,-29.33745 0,-21.79767 18.91861,-39.07105 50.44967,-39.07105 30.57139,0 49.90133,16.03964 51.95773,39.8935 l -30.70861,0 c -0.27412,-6.44326 -1.5079,-16.58798 -19.60405,-16.58798 -12.20113,0 -20.28946,2.46752 -20.97501,10.96733 0,12.47519 25.36202,11.65274 45.10314,16.86211 18.9186,4.7983 30.98267,16.58814 30.98267,33.03907 0,30.29727 -24.53941,41.95001 -54.83653,41.95001"
           style="fill:#000000;fill-rule:nonzero;stroke:none"
           inkscape:connector-curvature="0" />
        <path
           id="path2415"
           class="ps00"
           d="m 265.24438,611.93622 105.97165,-61.14278 118.85823,205.91121 -110.90696,0 0,30.16006 -30.16006,0 0,-30.29712 -83.76286,-144.63137"
           style="fill:#000000;fill-rule:nonzero;stroke:none"
           inkscape:connector-curvature="0" />
        <path
           id="path2417"
           class="ps01"
           d="m 267.98623,923.13364 c -35.09542,0 -63.61043,-28.65221 -63.61043,-63.33619 0,-35.09547 28.51501,-62.78785 63.61043,-62.78785 13.29786,0 25.36187,3.56425 35.91793,10.83012 l 0,-51.13507 30.16011,0 0,163.54998 -30.16011,0 0,-8.08833 c -10.55606,6.85459 -22.62007,10.96734 -35.91793,10.96734 z m -34.68414,-63.33619 c 0,18.9185 16.17678,34.68398 35.50665,34.68398 18.91861,0 35.09542,-15.76548 35.09542,-34.68398 0,-18.91866 -16.17681,-35.09547 -35.09542,-35.09547 -19.32987,0 -35.50665,16.17681 -35.50665,35.09547"
           style="fill:#000000;fill-rule:evenodd;stroke:none"
           inkscape:connector-curvature="0" />
        <path
           id="path2419"
           class="ps01"
           d="m 490.89682,756.70465 29.74883,0 0,163.54998 -29.74883,0 0,-8.08833 c -10.14478,6.85459 -22.62007,10.96734 -36.32921,10.96734 -34.68414,0 -63.19913,-28.65221 -63.19913,-63.33619 0,-35.09547 28.51499,-62.78785 63.19913,-62.78785 13.70914,0 25.77315,3.56425 36.32921,10.83012 l 0,-51.13507 z m -70.19079,103.0928 c 0,18.9185 16.17676,34.68398 34.68414,34.68398 19.32989,0 35.50665,-15.76548 35.50665,-34.68398 0,-18.91866 -16.17676,-35.09547 -35.50665,-35.09547 -18.50738,0 -34.68414,16.17681 -34.68414,35.09547"
           style="fill:#000000;fill-rule:evenodd;stroke:none"
           inkscape:connector-curvature="0" />
        <path
           id="path2421"
           class="ps01"
           d="m 593.98956,923.13364 c -34.54703,0 -63.19913,-28.65221 -63.19913,-63.33619 0,-35.09547 28.6521,-62.78785 63.19913,-62.78785 13.29791,0 25.7731,3.56425 35.91798,10.83012 l 0,-9.7334 30.16006,0 0,122.14831 -30.16006,0 0,-8.08833 c -10.14488,6.85459 -22.20879,10.96734 -35.91798,10.96734 z m -33.86158,-63.33619 c 0,18.9185 16.17676,34.68398 35.09537,34.68398 18.91866,0 34.68419,-15.76548 34.68419,-34.68398 0,-18.91866 -15.76553,-35.09547 -34.68419,-35.09547 -18.91861,0 -35.09537,16.17681 -35.09537,35.09547"
           style="fill:#000000;fill-rule:evenodd;stroke:none"
           inkscape:connector-curvature="0" />
        <path
           id="path2423"
           class="ps01"
           d="m 93.468866,859.79745 c 0,18.9185 16.176784,34.68398 35.095404,34.68398 19.32987,0 35.50666,-15.76548 35.50666,-34.68398 0,-18.91866 -16.17679,-35.09547 -35.50666,-35.09547 -18.91862,0 -35.095404,16.17681 -35.095404,35.09547 z m 34.272844,63.33619 c -34.684124,0 -63.336218,-28.65221 -63.336218,-63.33619 0,-35.09547 28.652094,-62.78785 63.336218,-62.78785 13.29787,0 25.77319,3.56425 36.32922,10.83012 l 0,-9.7334 29.74883,0 0,122.14831 -29.74883,0 0,-8.08833 c -10.14475,6.85459 -22.62008,10.96734 -36.32922,10.96734"
           style="fill:#000000;fill-rule:evenodd;stroke:none"
           inkscape:connector-curvature="0" />
      </g>
    </g>
  </g>
</svg>
