<?xml version="1.0" encoding="UTF-8" standalone="no"?>
<!-- Created with Inkscape (http://www.inkscape.org/) -->

<svg
   xmlns:dc="http://purl.org/dc/elements/1.1/"
   xmlns:cc="http://creativecommons.org/ns#"
   xmlns:rdf="http://www.w3.org/1999/02/22-rdf-syntax-ns#"
   xmlns:svg="http://www.w3.org/2000/svg"
   xmlns="http://www.w3.org/2000/svg"
   xmlns:sodipodi="http://sodipodi.sourceforge.net/DTD/sodipodi-0.dtd"
   xmlns:inkscape="http://www.inkscape.org/namespaces/inkscape"
   id="svg2"
   version="1.1"
   inkscape:version="0.91 r13725"
   width="1000"
   height="311.03601"
   xml:space="preserve"
   sodipodi:docname="Puma Wordmark.svg"><metadata
     id="metadata8"><rdf:RDF><cc:Work
         rdf:about=""><dc:format>image/svg+xml</dc:format><dc:type
           rdf:resource="http://purl.org/dc/dcmitype/StillImage" /><dc:title></dc:title></cc:Work></rdf:RDF></metadata><defs
     id="defs6"><clipPath
       clipPathUnits="userSpaceOnUse"
       id="clipPath16"><path
         d="m 507.03,858.5 105.03,0 0,-858.89 -105.03,0 0,858.89 z"
         id="path18"
         inkscape:connector-curvature="0"
         style="clip-rule:evenodd" /></clipPath><clipPath
       clipPathUnits="userSpaceOnUse"
       id="clipPath22"><path
         d="M 0,858 1207,858 1207,0 0,0 0,858 Z"
         id="path24"
         inkscape:connector-curvature="0" /></clipPath><clipPath
       clipPathUnits="userSpaceOnUse"
       id="clipPath28"><path
         d="m 0.24,857.76 1207.2,0 0,-857.76 -1207.2,0 0,857.76 z"
         id="path30"
         inkscape:connector-curvature="0" /></clipPath><clipPath
       clipPathUnits="userSpaceOnUse"
       id="clipPath40"><path
         d="m 507.03,858.5 104.88,0 0,-128.75 -104.88,0 0,128.75 z"
         id="path42"
         inkscape:connector-curvature="0"
         style="clip-rule:evenodd" /></clipPath><clipPath
       clipPathUnits="userSpaceOnUse"
       id="clipPath46"><path
         d="M 0,858 1207,858 1207,0 0,0 0,858 Z"
         id="path48"
         inkscape:connector-curvature="0" /></clipPath><clipPath
       clipPathUnits="userSpaceOnUse"
       id="clipPath52"><path
         d="m 0.24,857.76 1207.2,0 0,-857.76 -1207.2,0 0,857.76 z"
         id="path54"
         inkscape:connector-curvature="0" /></clipPath><clipPath
       clipPathUnits="userSpaceOnUse"
       id="clipPath64"><path
         d="M 0,858 1207,858 1207,0 0,0 0,858 Z"
         id="path66"
         inkscape:connector-curvature="0" /></clipPath><clipPath
       clipPathUnits="userSpaceOnUse"
       id="clipPath70"><path
         d="m 0.24,857.76 1207.2,0 0,-857.76 -1207.2,0 0,857.76 z"
         id="path72"
         inkscape:connector-curvature="0" /></clipPath><clipPath
       clipPathUnits="userSpaceOnUse"
       id="clipPath80"><path
         d="m -0.23,858.5 612.29,0 0,-858.89 -612.29,0 0,858.89 z"
         id="path82"
         inkscape:connector-curvature="0"
         style="clip-rule:evenodd" /></clipPath><clipPath
       clipPathUnits="userSpaceOnUse"
       id="clipPath86"><path
         d="M 0,858 1207,858 1207,0 0,0 0,858 Z"
         id="path88"
         inkscape:connector-curvature="0" /></clipPath><clipPath
       clipPathUnits="userSpaceOnUse"
       id="clipPath92"><path
         d="m 0.24,857.76 1207.2,0 0,-857.76 -1207.2,0 0,857.76 z"
         id="path94"
         inkscape:connector-curvature="0" /></clipPath><clipPath
       clipPathUnits="userSpaceOnUse"
       id="clipPath122"><path
         d="M 0,858 1207,858 1207,0 0,0 0,858 Z"
         id="path124"
         inkscape:connector-curvature="0" /></clipPath><clipPath
       clipPathUnits="userSpaceOnUse"
       id="clipPath128"><path
         d="m 0.24,857.76 1207.2,0 0,-857.76 -1207.2,0 0,857.76 z"
         id="path130"
         inkscape:connector-curvature="0" /></clipPath></defs><sodipodi:namedview
     pagecolor="#ffffff"
     bordercolor="#666666"
     borderopacity="1"
     objecttolerance="10"
     gridtolerance="10"
     guidetolerance="10"
     inkscape:pageopacity="0"
     inkscape:pageshadow="2"
     inkscape:window-width="1366"
     inkscape:window-height="705"
     id="namedview4"
     showgrid="false"
     fit-margin-top="0"
     fit-margin-left="0"
     fit-margin-right="0"
     fit-margin-bottom="0"
     inkscape:zoom="0.5"
     inkscape:cx="398.89084"
     inkscape:cy="342.43101"
     inkscape:window-x="-8"
     inkscape:window-y="-8"
     inkscape:window-maximized="1"
     inkscape:current-layer="g10" /><g
     id="g10"
     inkscape:groupmode="layer"
     inkscape:label="Sustainability_Report_Perspective"
     transform="matrix(1.25,0,0,-1.25,-929.89886,360.03128)"><g
       id="g3148"
       transform="matrix(10.841724,0,0,10.841724,-7321.4469,-385.75839)"
       style="fill:#000000"><path
         inkscape:connector-curvature="0"
         id="path102"
         style="fill:#000000;fill-opacity:1;fill-rule:nonzero;stroke:none"
         d="m 768.15312,41.95522 c -0.577,0.014 -1.067,0.487 -1.067,1.072 l 0.002,19.12 -6.302,0 0,-21.075 c 0,-1.034 0.837,-1.876 1.864,-1.876 l 11.013,0 c 1.034,0 1.861,0.842 1.861,1.876 l 0,21.075 -6.296,0 -0.005,-19.12 c 0,-0.585 -0.49,-1.058 -1.07,-1.072" /><path
         inkscape:connector-curvature="0"
         id="path104"
         style="fill:#000000;fill-opacity:1;fill-rule:nonzero;stroke:none"
         d="m 789.25012,62.14722 -9.536,0 c -1.13,0 -2.049,-0.918 -2.049,-2.058 l 0,-20.893 6.308,0 0,19.165 c 0.004,0.587 0.479,1.052 1.066,1.052 0.588,0 1.061,-0.454 1.074,-1.036 l 0,-19.181 6.281,0 0,19.181 c 0.008,0.582 0.48,1.036 1.068,1.036 0.582,0 1.064,-0.465 1.068,-1.052 l 0,-19.165 6.308,0 0,20.893 c 0,1.14 -0.922,2.058 -2.05,2.058 l -9.538,0" /><path
         inkscape:connector-curvature="0"
         id="path106"
         style="fill:#000000;fill-opacity:1;fill-rule:nonzero;stroke:none"
         d="m 756.58312,44.96322 -6.366,0 0,-5.767 -6.298,0 0,22.951 12.704,0 c 1.137,0 2.025,-0.924 2.025,-2.067 l 0,-13.048 c 0,-1.147 -0.923,-2.069 -2.065,-2.069 z m -4.229,13.358 c 0.005,0.638 -0.515,1.092 -1.067,1.092 l -1.07,0 0,-11.608 1.07,0 c 0.556,0 1.072,0.442 1.067,1.078 l 0,9.438" /><path
         inkscape:connector-curvature="0"
         id="path112"
         style="fill:#000000;fill-opacity:1;fill-rule:nonzero;stroke:none"
         d="m 811.41112,39.19622 0,5.762 -2.141,0 0,-5.762 -6.295,0 0,20.893 c 0,1.14 0.919,2.058 2.049,2.058 l 10.634,0 c 1.132,0 2.05,-0.918 2.05,-2.058 l 0,-20.893 -6.297,0 z m 0,8.605 0,10.568 c -0.015,0.584 -0.485,1.033 -1.073,1.033 -0.582,0 -1.062,-0.467 -1.068,-1.05 l 0,-10.551 2.141,0" /></g></g></svg>